<svg preserveAspectRatio="xMidYMid meet" data-bbox="19.998 52.497 160.002 95.005" viewBox="19.998 52.497 160.002 95.005" height="100" width="100" xmlns="http://www.w3.org/2000/svg" data-type="color" role="presentation" aria-hidden="true" aria-label=""><defs><style>#comp-m8x97u8a svg [data-color="1"] {fill: #FBA839;}
#comp-m8x97u8a svg [data-color="4"] {fill: #A7B4E7;}
#comp-m8x97u8a svg [data-color="5"] {fill: #EFE9F1;}</style></defs>
    <g>
        <path d="M176.638 100.951c-.09-.168-.181-.336-.275-.502a.362.362 0 0 0-.331-.196.275.275 0 0 0-.041-.024.499.499 0 0 0-.216-.444 52.597 52.597 0 0 0-8.898-5.187c-.782.193-57.039-10.942-67.831-8.764-5.66 1.142-62.624 16.37-68.292 15.309-3.006.698-6.012 1.4-9.016 2.109-.338.08-.434.396-.354.655-.127.254-.073.624.268.762l.359.144.002.005c.488.906.916 1.843 1.285 2.801a.256.256 0 0 0 .093.239c.574 1.54.99 3.137 1.239 4.762-.099.112-.101.326.061.422.094.701.157 1.407.188 2.115l.009.248c-.106.097-.124.306.009.419.023 2.091-.27 4.488-1.448 6.204a.28.28 0 0 0-.054.077 4.995 4.995 0 0 1-2.437 1.856c-.009.003-.017.008-.025.012l-.363-.143c-.069.206-.14.404-.204.584a22.22 22.22 0 0 1-.365.959 500.338 500.338 0 0 0 67.238 22.075.507.507 0 0 0 .337-.025.34.34 0 0 0 .321.063 2048.227 2048.227 0 0 0 15.733-4.333 2028.082 2028.082 0 0 0 67.105-20.02l1.688-.536c2.129-.677 4.257-1.357 6.384-2.042.2.146.512.124.578-.183l.04-.201c.004-.014.006-.029.009-.043 1.314-6.49.324-13.352-2.796-19.177zm-88.894 44.876a.515.515 0 0 0-.159-.071 592.222 592.222 0 0 1-52.536-16.431 595.592 595.592 0 0 1-13.121-4.962l-.32-.126c.373-.18.715-.396 1.027-.645.393-.312.74-.673 1.043-1.071a1127.761 1127.761 0 0 0 54.328 18.186c3.416 1.047 6.837 2.077 10.262 3.092a39.155 39.155 0 0 1-.524 2.028zm83.904-44.53-.923.279c.293-.14.603-.236.923-.279zm-1.268 14.766zm.173-1.973c.046-.035.095-.067.142-.1-.047.033-.096.065-.142.1z" fill="#FFE300" data-color="1"></path>
        <path d="M46.841 113.834a377.95 377.95 0 0 1-24.098-8.728c.393.772.746 1.563 1.056 2.372a898.826 898.826 0 0 0 65.036 22.061 38.75 38.75 0 0 0-1.093-5.076.52.52 0 0 1-.374.056l-.588-.122a376.552 376.552 0 0 1-39.939-10.563z" fill="#F8F0E9" data-color="2"></path>
        <path d="M50.994 117.924a904.246 904.246 0 0 1-26.959-9.806 24.432 24.432 0 0 1 .577 1.878.228.228 0 0 1 .186-.007l15.338 5.515 27.3 9.817 21.755 7.823a39.378 39.378 0 0 0-.277-3.046 918.857 918.857 0 0 1-10.268-3.112 902.54 902.54 0 0 1-27.652-9.062z" fill="#F8F0E9" data-color="2"></path>
        <path d="M50.653 131.937a1132.191 1132.191 0 0 1-26.976-9.415c-.303.398-.65.759-1.043 1.071-.22.268-.454.526-.707.77a592.752 592.752 0 0 0 39.198 13.789 592.222 592.222 0 0 0 26.459 7.604.505.505 0 0 1 .159.071c.193-.671.367-1.347.523-2.027a1119.806 1119.806 0 0 1-37.613-11.863z" fill="#F8F0E9" data-color="2"></path>
        <path d="M51.116 129.388a1168.17 1168.17 0 0 1-26.202-9.334 8.256 8.256 0 0 1-.93 2.032 1120.784 1120.784 0 0 0 64.395 21.211c.123-.574.233-1.151.329-1.729a1172.864 1172.864 0 0 1-37.592-12.18z" fill="#F8F0E9" data-color="2"></path>
        <path d="M52.962 124.244a599.751 599.751 0 0 1-27.704-10.959c.094.741.153 1.487.17 2.231a555.454 555.454 0 0 0 43.226 17.344 556.087 556.087 0 0 0 20.333 6.745c.128-1.114.21-2.232.241-3.352a599.614 599.614 0 0 1-36.266-12.009z" fill="#F8F0E9" data-color="2"></path>
        <path d="m51.845 120.261-27.101-9.745c.174.715.319 1.443.431 2.179a597.135 597.135 0 0 0 44 16.694 598.817 598.817 0 0 0 20.063 6.328c.01-.673.002-1.346-.023-2.018l-10.07-3.621-27.3-9.817z" fill="#F8F0E9" data-color="2"></path>
        <path d="M52.782 127.529a556.425 556.425 0 0 1-27.348-11.451 17.77 17.77 0 0 1-.156 2.313c-.053.391-.127.781-.224 1.166a1165.53 1165.53 0 0 0 63.738 21.497c.048-.309.091-.619.131-.93a555.162 555.162 0 0 1-36.141-12.595z" fill="#F8F0E9" data-color="2"></path>
        <path d="M22.634 123.592a5.974 5.974 0 0 0 1.043-1.071 1126.224 1126.224 0 0 0 54.328 18.186c3.416 1.047 6.837 2.077 10.262 3.092l.113-.503a1129.91 1129.91 0 0 1-22.243-6.84 1129.517 1129.517 0 0 1-42.152-14.371 8.22 8.22 0 0 0 .93-2.032 1168.17 1168.17 0 0 0 52.728 18.074c3.683 1.165 7.372 2.311 11.067 3.439.029-.171.056-.342.083-.513a1161.354 1161.354 0 0 1-63.738-21.497c.097-.385.172-.776.224-1.166.103-.761.152-1.535.156-2.313a555.52 555.52 0 0 0 63.489 24.047c.022-.173.044-.346.064-.52a555.766 555.766 0 0 1-63.559-24.089 21.97 21.97 0 0 0-.17-2.231 599.751 599.751 0 0 0 27.704 10.959 599.202 599.202 0 0 0 36.265 12.009c.005-.179.008-.357.011-.536a598.817 598.817 0 0 1-20.063-6.328 598.267 598.267 0 0 1-44-16.694 25.43 25.43 0 0 0-.431-2.179l27.101 9.745 27.3 9.817 10.07 3.621a34.33 34.33 0 0 0-.025-.555l-21.755-7.823-27.3-9.817-15.338-5.515a.228.228 0 0 0-.186.007 24.979 24.979 0 0 0-.577-1.878 898.68 898.68 0 0 0 54.61 18.868 892.215 892.215 0 0 0 10.268 3.112c-.024-.187-.05-.373-.078-.559a897.632 897.632 0 0 1-65.036-22.061c-.31-.808-.663-1.6-1.056-2.372l-.733-.295.002.005c.488.906.916 1.843 1.285 2.801a.256.256 0 0 0 .093.239c.574 1.54.991 3.137 1.239 4.762-.099.112-.101.326.06.422.094.701.158 1.407.188 2.115l.009.248c-.106.097-.123.306.009.419.023 2.09-.27 4.488-1.448 6.204a.28.28 0 0 0-.054.077 4.995 4.995 0 0 1-2.437 1.856c-.009.003-.017.008-.025.012l.676.265a5.354 5.354 0 0 0 1.027-.643z" fill="#151215" data-color="3"></path>
        <path d="M103.538 139.551c-.034-1.348-.629-2.583-1.556-3.391-.497 1.166-1.235 2.213-2.17 2.992-.967.807-2.238 1.289-3.424.812-1.081-.435-1.85-1.564-1.614-2.834.52-2.807 4.014-3.685 6.2-3.03.114.034.225.074.335.116.262-1.183.24-2.433-.169-3.557a5.002 5.002 0 0 0-.536-1.054 6.4 6.4 0 0 1-2.388 1.757c-1.131.472-2.431.713-3.614.38-1.108-.311-1.959-1.337-1.78-2.619.382-2.75 3.606-3.408 5.65-2.735.741.244 1.418.64 2.003 1.149.557-1.228.641-2.687.071-3.94a3.496 3.496 0 0 0-.917-1.213 1600.87 1600.87 0 0 1-11.667 2.882 38.293 38.293 0 0 1 .951 4.832 38.413 38.413 0 0 1 .302 3.601 38.786 38.786 0 0 1-1.472 12.128.515.515 0 0 0-.159-.071 592.222 592.222 0 0 1-52.536-16.431 595.592 595.592 0 0 1-13.121-4.962l-.321-.126-.676-.265-.363-.143c-.069.206-.14.404-.204.584a22.22 22.22 0 0 1-.365.959 500.338 500.338 0 0 0 67.238 22.075.507.507 0 0 0 .337-.025.34.34 0 0 0 .321.063c3.91-1.06 7.816-2.132 11.719-3.215a.589.589 0 0 1 .304-.152c2.029-.38 3.678-2.319 3.621-4.567z" fill="#FFE300" data-color="1"></path>
        <path d="m96.311 121.797.696-.196c-.236.036-.469.1-.696.196z" fill="#FFE300" data-color="1"></path>
        <path d="M171.648 101.298c-.32.042-.631.138-.923.279l.923-.279z" fill="#FFE300" data-color="1"></path>
        <path d="M169.726 119.613a4.597 4.597 0 0 1 .655-3.549c.733.931 1.662 1.685 2.711 2.139 1.085.469 2.377.556 3.367-.215.902-.702 1.353-1.954.839-3.054-1.135-2.431-4.584-2.258-6.459-1.044a4.397 4.397 0 0 0-.284.201c-.518-1.013-.789-2.166-.671-3.312.039-.382.127-.757.252-1.118.782.517 1.684.85 2.625.944 1.16.116 2.422-.027 3.443-.664.956-.596 1.507-1.776 1.043-2.904-.995-2.417-4.14-2.118-5.881-.928a6.043 6.043 0 0 0-1.592 1.616c-.803-.971-1.221-2.287-.984-3.597.056-.31.155-.607.288-.884 2.522-.758 5.043-1.522 7.561-2.292-.09-.168-.181-.336-.275-.502a.362.362 0 0 0-.331-.196.338.338 0 0 0-.041-.024.487.487 0 0 0-.044-.239c-.951.291-1.903.582-2.855.871l-1.445.437-.923.279c-.832.251-1.664.503-2.497.753a1586.878 1586.878 0 0 1-26.587 7.722 1573.8 1573.8 0 0 1-41.567 11.063l-2.027.507a1607.901 1607.901 0 0 1-11.268 2.775l.588.122a.53.53 0 0 0 .374-.056c.077.267.149.535.22.803 3.893-.946 7.782-1.906 11.667-2.882.381.324.7.734.917 1.213.57 1.253.486 2.713-.071 3.94a5.822 5.822 0 0 0-2.003-1.149c-2.044-.672-5.268-.015-5.65 2.735-.178 1.283.672 2.308 1.78 2.619 1.184.333 2.483.092 3.614-.38a6.416 6.416 0 0 0 2.388-1.757c.218.327.4.68.536 1.054.408 1.124.431 2.374.169 3.557a4.726 4.726 0 0 0-.335-.116c-2.185-.655-5.68.223-6.2 3.03-.235 1.27.534 2.399 1.614 2.834 1.186.478 2.457-.005 3.424-.812.935-.78 1.673-1.826 2.17-2.992.927.808 1.522 2.043 1.556 3.391.057 2.248-1.592 4.186-3.618 4.567a.585.585 0 0 0-.304.152c1.338-.371 2.676-.744 4.014-1.118a5.864 5.864 0 0 0 1.133-3.118c.118-2.041-.799-4.064-2.333-5.199a8.731 8.731 0 0 0 .243-2.966 6.659 6.659 0 0 0-1.303-3.369c.75-1.352 1.035-2.974.609-4.581a5.141 5.141 0 0 0-.947-1.889 1569.534 1569.534 0 0 0 66.654-18.368 5.084 5.084 0 0 0-.153 1.163 5.622 5.622 0 0 0 1.632 4.035 6.507 6.507 0 0 0-.425 3.457 7.99 7.99 0 0 0 .916 2.655c-1.16 1.472-1.54 3.586-.956 5.426a5.274 5.274 0 0 0 2.034 2.734l1.688-.536a4.122 4.122 0 0 1-2.695-2.984zm2.37-4.995c.823-.354 1.748-.444 2.61-.21.776.21 1.958.916 1.534 1.947-.83 2.019-3.43.433-4.402-.515a6.627 6.627 0 0 1-.616-.696c.264-.21.556-.389.874-.526zm.519-7.804c.716-.336 1.581-.506 2.344-.253.689.229 1.648 1.003 1.109 1.854-.457.723-1.515.897-2.263.949a5.08 5.08 0 0 1-2.669-.535 4.151 4.151 0 0 1-.462-.277c.485-.751 1.157-1.371 1.941-1.738zM99.39 129.072a5.492 5.492 0 0 1-2.535 1.356c-.762.176-1.865.322-2.506-.269-.754-.696.009-1.773.64-2.215.699-.489 1.608-.581 2.41-.461.878.132 1.708.554 2.384 1.167a4.5 4.5 0 0 1-.393.422zm1.077 7.308c-.732 1.256-2.932 3.655-4.275 1.866-.686-.914.318-1.989 1.042-2.439a4.145 4.145 0 0 1 2.665-.584c.353.041.69.133 1.008.266a7.372 7.372 0 0 1-.44.891z" fill="#151215" data-color="3"></path>
        <path d="m157.663 77.322-1.017.177a45.548 45.548 0 0 1 1.4 19.239l1.066-.254a46.271 46.271 0 0 0-1.449-19.162z" fill="#151215" data-color="3"></path>
        <path d="m162.427 76.487-1.017.178a53.743 53.743 0 0 1 2.074 18.763l1.046-.256a54.525 54.525 0 0 0-2.103-18.685z" fill="#151215" data-color="3"></path>
        <path d="m151.012 70.904-1.031.25a.247.247 0 0 0-.037-.044c-2.263-2.211-3.182-5.581-2.342-8.633l.166-.029a.517.517 0 0 0 .126-.04 28.902 28.902 0 0 0-.23-.967c-.018-.001-.035-.004-.054-.003a.522.522 0 0 0-.434-.35 1533.434 1533.434 0 0 1-54.242-8.347.44.44 0 0 0-.54-.219 1382.583 1382.583 0 0 1-46.355 12.709.514.514 0 0 0-.238.132.491.491 0 0 0-.14.331.418.418 0 0 0-.115.145.553.553 0 0 0-.058.253c-2.489 3.103-2.859 7.449-.994 10.934.089.167.181.332.281.494l.781.149c.799.148 1.602.27 2.408.362l.109.023.571.119a415.35 415.35 0 0 0 23.983 4.295c2.678.398 5.36.77 8.045 1.115.819.105 1.639.2 2.458.3s1.638.205 2.458.3c.185.022.371.042.556.063 1.355.156 2.711.306 4.068.448.139.015.25-.02.333-.085.06.011.124.012.193 0a964.319 964.319 0 0 0 59.128-12.374l.98-.226a.555.555 0 0 0 .117-.041l.49-.119a17.002 17.002 0 0 1-.441-.945z" fill="#0086CE" data-color="4"></path>
        <path d="M100.331 75.074a1205.78 1205.78 0 0 0 46.456-10.099c-.01-.451.012-.903.067-1.353a564.724 564.724 0 0 1-58.582 11.516 7.48 7.48 0 0 0-.449 2.328c4.174-.775 8.343-1.572 12.508-2.392z" fill="#F8F0E9" data-color="2"></path>
        <path d="M90.422 83.481a1320.01 1320.01 0 0 0 36.8-7.274 1322.963 1322.963 0 0 0 22.181-4.914 9.036 9.036 0 0 1-.803-.949l-13.069 2.724-23.415 4.88-22.513 4.692c.248.296.521.578.819.841z" fill="#F8F0E9" data-color="2"></path>
        <path d="m101.848 79.561 23.415-4.88 23.022-4.798a9.425 9.425 0 0 1-1.113-2.445 518.47 518.47 0 0 1-35.982 8.976A518.55 518.55 0 0 1 88.425 80.7c.219.52.494 1.019.828 1.486l12.595-2.625z" fill="#F8F0E9" data-color="2"></path>
        <path d="M88.502 74.587a563.294 563.294 0 0 0 58.341-11.492.272.272 0 0 1 .093-.006c.032-.172.07-.343.111-.513l-12.288 2.175-22.992 4.07-20.859 3.692-1.218.216a.502.502 0 0 1-.044.082.497.497 0 0 1-.049.067 7.421 7.421 0 0 0-1.095 1.709z" fill="#F8F0E9" data-color="2"></path>
        <path d="M100.898 77.96a516.495 516.495 0 0 0 46.143-11.019 9.502 9.502 0 0 1-.227-1.443A1205.794 1205.794 0 0 1 87.826 77.99c.027.754.166 1.503.412 2.221a523.074 523.074 0 0 0 12.66-2.251z" fill="#F8F0E9" data-color="2"></path>
        <path d="M146.936 63.089a.273.273 0 0 0-.093.006 565.32 565.32 0 0 1-45.912 9.578 566.48 566.48 0 0 1-12.429 1.914 7.28 7.28 0 0 0-.229.551 565.075 565.075 0 0 0 58.582-11.516c-.056.45-.078.902-.067 1.353a1214.625 1214.625 0 0 1-23.099 5.261 1214.91 1214.91 0 0 1-35.864 7.231 7.016 7.016 0 0 0 0 .523 1202.563 1202.563 0 0 0 58.988-12.492c.038.487.116.969.227 1.443a517.587 517.587 0 0 1-58.805 13.27c.057.165.12.328.188.489a515.703 515.703 0 0 0 58.747-13.262 9.443 9.443 0 0 0 1.113 2.445l-23.022 4.798-23.415 4.88-12.596 2.625c.11.155.228.305.351.452l22.513-4.692 23.415-4.88 13.069-2.724c.244.333.513.65.803.949l.253-.058.326-.079a.247.247 0 0 0-.037-.044c-2.264-2.211-3.182-5.581-2.342-8.633l-.555.098a9.223 9.223 0 0 0-.11.514z" fill="#151215" data-color="3"></path>
        <path d="M60.694 72.602c-.62-.147-1.144.778-1.235 1.246a1.706 1.706 0 0 0-.029.406l.125-.067c.275-.153.542-.322.794-.51.183-.136 1.128-.89.345-1.075z" fill="#0086CE" data-color="4"></path>
        <path d="M45.554 77.672c.799.148 1.602.27 2.408.363l.109.023c-1.126-3.848-.734-8.068 1.05-11.651l-3.577-.565a.541.541 0 0 0-.058.253c-2.489 3.103-2.859 7.449-.994 10.934.089.167.182.332.281.494l.781.149z" fill="#0086CE" data-color="4"></path>
        <path d="M71.851 77.423c-1.265.923-3.258.548-3.894-.955-1.263.665-2.963 1.219-4.021.283a1.843 1.843 0 0 1-.378-.467c-1.061.508-2.279.647-3.347.013a2.679 2.679 0 0 1-1.116-1.311 8.397 8.397 0 0 1-3.3.679c-.331.001-.31-.513.02-.514a7.75 7.75 0 0 0 3.14-.667 2.113 2.113 0 0 1 .575-1.861c.409-.42 1.246-.812 1.741-.301.527.544.021 1.263-.439 1.628-.403.32-.838.594-1.293.825.278.731 1.036 1.268 1.819 1.391.703.111 1.384-.043 2.002-.346-.346-1.151.159-2.656 1.287-3.107.572-.229 1.285.032 1.399.679.137.777-.593 1.479-1.106 1.949a5.86 5.86 0 0 1-.938.701c.031.049.064.097.102.144.419.514 1.078.58 1.693.478a6.802 6.802 0 0 0 2.015-.703c-.204-1.265.522-2.955 1.942-2.943.685.006 1.053.622.817 1.244-.283.747-1.136 1.297-1.776 1.712a11.98 11.98 0 0 1-.387.24c.083.215.205.415.37.588.691.723 1.918.83 2.723.242.266-.191.617.184.35.379z" fill="#0086CE" data-color="4"></path>
        <path d="M65.241 73.163c-.633-.219-1.174.736-1.346 1.203a2.109 2.109 0 0 0-.091 1.206c.305-.193.591-.419.851-.663.312-.292 1.471-1.439.586-1.746z" fill="#0086CE" data-color="4"></path>
        <path d="M70.141 73.902c-.053-.909-1.241.004-1.443.278a2.22 2.22 0 0 0-.412 1.515c.22-.134.432-.276.634-.424.367-.269 1.252-.846 1.221-1.369z" fill="#0086CE" data-color="4"></path>
        <path d="m48.072 78.057.571.119a15.656 15.656 0 0 1 1.011-11.686l30.807 4.868 6.086.962a15.502 15.502 0 0 0-.959 11.868c.185.022.371.042.556.063-1.35-3.871-.983-8.241.939-11.846l2.565.405a.656.656 0 0 0 .044-.082l1.218-.216a.265.265 0 0 0-.098-.035l-1.128-.178-2.337-.369-.542-.086-27.094-4.282-4.29-.608-9.425-1.335a.433.433 0 0 0-.335.076.418.418 0 0 0-.115.145l3.577.565c-1.786 3.584-2.177 7.804-1.051 11.652z"></path>
        <path d="M71.502 77.046c-.805.588-2.032.481-2.723-.242a1.77 1.77 0 0 1-.37-.588c.138-.082.268-.162.387-.24.64-.415 1.492-.964 1.776-1.712.236-.622-.132-1.238-.817-1.244-1.419-.013-2.146 1.678-1.942 2.943-.638.335-1.324.589-2.015.703-.615.102-1.275.036-1.693-.478a1.295 1.295 0 0 1-.102-.144 5.86 5.86 0 0 0 .938-.701c.513-.471 1.243-1.172 1.106-1.949-.114-.647-.827-.908-1.399-.679-1.128.451-1.633 1.956-1.287 3.107-.618.303-1.299.457-2.002.346-.783-.123-1.541-.66-1.819-1.391.456-.231.89-.505 1.293-.825.46-.365.966-1.084.439-1.628-.495-.511-1.332-.12-1.741.301a2.11 2.11 0 0 0-.575 1.861 7.75 7.75 0 0 1-3.14.667c-.33.001-.351.515-.02.514a8.415 8.415 0 0 0 3.3-.679c.21.531.601 1.005 1.116 1.311 1.068.634 2.285.495 3.347-.013.1.174.226.332.378.467 1.058.936 2.758.382 4.021-.283.636 1.502 2.63 1.878 3.894.955.266-.197-.085-.572-.35-.379zm-12.073-2.792a1.71 1.71 0 0 1 .029-.406c.091-.469.614-1.393 1.235-1.246.784.185-.162.939-.344 1.075-.253.188-.52.357-.794.51l-.126.067zm4.375 1.319a2.109 2.109 0 0 1 .091-1.206c.172-.468.713-1.423 1.346-1.203.886.307-.274 1.454-.586 1.747-.26.243-.546.468-.851.662zm4.482.122a2.22 2.22 0 0 1 .412-1.515c.202-.274 1.39-1.187 1.443-.278.031.523-.854 1.099-1.221 1.369-.202.148-.414.29-.634.424z"></path>
        <path d="M165.42 76.441a.51.51 0 0 0-.596-.375l-.012.002a.484.484 0 0 0-.24-.102l-2.421-.391-1.11-.18-14.527-2.349c-2.581.616-44.083-6.983-52.143-5.557-.069.012-49.788 9.706-49.877 9.539-6.001.828-12.006 1.638-18.014 2.429a.46.46 0 0 0-.301.146l-.03.425a.449.449 0 0 0 .038.062.496.496 0 0 0-.047.066l-.026.376c.048.093.146.169.3.204 2.452 5.845 1.645 12.832-2.031 17.985l-.498-.089a.54.54 0 0 0-.48.145.538.538 0 0 0-.147.064 5.58 5.58 0 0 0-.062.864c.04.02.084.037.136.046l7.426 1.39 17.004 3.183 24.43 4.573 13.41 2.51.009.011-.005-.029.859.039.004-.006c3.298-.569 6.593-1.154 9.885-1.751l1.023-.186c1.111-.202 2.221-.407 3.331-.612l1.037-.192a1151.549 1151.549 0 0 0 49.277-10.289c2.345-.543 4.688-1.096 7.03-1.654l1.066-.254c1.458-.349 2.915-.702 4.372-1.057l1.046-.256c.783-.191 1.565-.382 2.348-.575l2.144-.528c.28.064.636-.077.684-.436.775-5.929-.283-12.449-4.292-17.191zm-79.534 33.318L61.8 105.437l-24.203-4.343-12.657-2.271c.438-.63.835-1.286 1.189-1.963a823.395 823.395 0 0 0 60.34 10.029 29.412 29.412 0 0 1-.583 2.87zm.656-3.377a823.125 823.125 0 0 1-60.174-9.995c.38-.779.706-1.584.976-2.406a883.294 883.294 0 0 0 49.695 8.689c3.24.471 6.483.923 9.728 1.358a29.554 29.554 0 0 1-.225 2.354z" fill="#FF3731" data-color="5"></path>
        <path d="M51.132 101.575a827.967 827.967 0 0 1-25.003-4.715 18.269 18.269 0 0 1-1.189 1.963l12.657 2.271 24.203 4.343 24.086 4.322c.242-.948.437-1.906.584-2.87a822.983 822.983 0 0 1-35.338-5.314z" fill="#F8F0E9" data-color="2"></path>
        <path d="M52.372 95.948a552.842 552.842 0 0 1-24.261-5.207 19.578 19.578 0 0 1-.613 2.748 879.485 879.485 0 0 0 38.708 7.018 880.825 880.825 0 0 0 20.584 3.006c.027-.702.03-1.404.008-2.106a551.206 551.206 0 0 1-34.426-5.459z" fill="#F8F0E9" data-color="2"></path>
        <path d="M51.213 88.401a2544.94 2544.94 0 0 0-23.008-3.239.244.244 0 0 1-.068-.019c.086.613.142 1.229.169 1.847a635.236 635.236 0 0 0 37.883 6.97 637.657 637.657 0 0 0 20.092 2.74 29.784 29.784 0 0 0-.75-3.066c-3.779-.603-7.56-1.198-11.342-1.784a2575.293 2575.293 0 0 0-22.976-3.449z" fill="#F8F0E9" data-color="2"></path>
        <path d="M28.225 84.648a2544.96 2544.96 0 0 1 57.137 8.443 29.455 29.455 0 0 0-1.2-3.112 729.367 729.367 0 0 1-57.149-9.12 18.823 18.823 0 0 1 1.052 3.822.222.222 0 0 1 .16-.033z" fill="#F8F0E9" data-color="2"></path>
        <path d="M52.184 98.69a883.294 883.294 0 0 1-24.84-4.71 19.05 19.05 0 0 1-.976 2.406 820.096 820.096 0 0 0 60.174 9.995 29.49 29.49 0 0 0 .225-2.355 873.33 873.33 0 0 1-34.583-5.336z" fill="#F8F0E9" data-color="2"></path>
        <path d="M52.406 92.217a637.645 637.645 0 0 1-24.083-4.7c.015.907-.032 1.814-.142 2.714a548.795 548.795 0 0 0 58.598 10.657 30.19 30.19 0 0 0-.402-3.659 637.666 637.666 0 0 1-33.971-5.012z" fill="#F8F0E9" data-color="2"></path>
        <path d="M26.129 96.859a822.983 822.983 0 0 0 60.341 10.029c.026-.169.05-.338.073-.507a823.125 823.125 0 0 1-60.174-9.995c.38-.779.706-1.584.976-2.406a883.294 883.294 0 0 0 49.695 8.689c3.24.471 6.483.923 9.728 1.358.01-.171.017-.342.024-.513A875.656 875.656 0 0 1 27.5 93.49c.27-.9.475-1.819.613-2.748a552.235 552.235 0 0 0 58.688 10.667 30.119 30.119 0 0 0-.021-.52 553.316 553.316 0 0 1-20.588-2.997 550.231 550.231 0 0 1-38.01-7.66c.109-.9.157-1.807.142-2.714A637.645 637.645 0 0 0 76.7 95.994c3.223.437 6.449.848 9.678 1.236-.03-.176-.062-.352-.095-.528a637.657 637.657 0 0 1-20.092-2.74 635.741 635.741 0 0 1-37.883-6.97 19.377 19.377 0 0 0-.169-1.847.338.338 0 0 0 .068.019 2544.932 2544.932 0 0 1 57.327 8.473 34.247 34.247 0 0 0-.17-.544 2521.343 2521.343 0 0 0-57.137-8.443.214.214 0 0 0-.159.034 18.694 18.694 0 0 0-1.052-3.822l-.586-.117-.017-.005c2.452 5.845 1.645 12.832-2.031 17.985l.559.1c.437-.633.833-1.289 1.188-1.966z" fill="#151215" data-color="3"></path>
        <path d="M114.67 95.642c5.371.121 10.704-.721 15.958-1.76 4.852-.96 9.883-1.849 14.365-4.03a23.44 23.44 0 0 0 1.669-.894c.355-.209 1.284-.627 1.143-1.157-.113-.427-1.361-.462-1.725-.518a31.682 31.682 0 0 0-6.903-.313.49.49 0 0 1-.247.085 91.63 91.63 0 0 0-2.717.243l-.047.007a.573.573 0 0 1-.081.006 92.666 92.666 0 0 0-14.761 2.773c-2.249.615-4.512 1.292-6.552 2.448-.549.311-1.08.655-1.576 1.045-.392.308-.888.65-1.108 1.113-.533 1.125 2.071.941 2.582.952z" fill="#FF3731" data-color="5"></path>
        <path d="m98.576 86.966-1.024.156c1.92 5.563 3 11.421 3.183 17.302a58.984 58.984 0 0 1-.032 4.451l1.037-.192a59.901 59.901 0 0 0-2.141-18.438 59.512 59.512 0 0 0-1.023-3.279z" fill="#151215" data-color="3"></path>
        <path d="M92.808 87.838a73.85 73.85 0 0 1 3.54 21.825l.001.01 1.023-.186a74.855 74.855 0 0 0-3.537-21.804l-1.027.155z" fill="#151215" data-color="3"></path>
        <path d="M112.316 96.402c.572.154 1.184.148 1.772.168.787.027 1.575.033 2.363.021a56.54 56.54 0 0 0 4.354-.246c2.949-.275 5.875-.745 8.783-1.299 2.785-.53 5.575-1.086 8.328-1.767 2.602-.644 5.183-1.446 7.595-2.629.69-.338 1.369-.705 2.02-1.114.527-.331 1.049-.72 1.193-1.363.373-1.663-1.888-1.731-2.964-1.886a32.711 32.711 0 0 0-9.759.091 93.401 93.401 0 0 0-14.371 2.646c-2.498.668-5.04 1.392-7.302 2.676-1.028.583-2.303 1.337-2.957 2.353-.637.991-.159 2.052.945 2.349zm-.228-1.711c.22-.463.715-.804 1.108-1.113.496-.39 1.027-.734 1.576-1.045 2.04-1.157 4.302-1.833 6.552-2.448a92.533 92.533 0 0 1 14.761-2.773.573.573 0 0 0 .128-.013 91.33 91.33 0 0 1 2.717-.243.486.486 0 0 0 .247-.085 31.93 31.93 0 0 1 6.903.313c.365.057 1.612.091 1.725.518.141.53-.788.948-1.143 1.157-.544.32-1.102.617-1.669.894-4.482 2.181-9.513 3.07-14.365 4.03-5.254 1.039-10.586 1.88-15.958 1.76-.511-.012-3.115.172-2.582-.952z" fill="#151215" data-color="3"></path>
        <path d="M155.845 114.389a.47.47 0 0 0-.15-.279.456.456 0 0 0-.541-.228 1480.619 1480.619 0 0 0-36.796 10.051.512.512 0 0 0-.254.159.499.499 0 0 0-.226.526l.63 3.576c.049.281.263.396.482.386a.514.514 0 0 0 .285.026 188.789 188.789 0 0 0 36.77-10.289c.161-.063.246-.172.273-.294a.494.494 0 0 0 .113-.431l-.586-3.203zm-28.643 11.617c-2.579.564-5.17 1.072-7.77 1.528l-.476-2.703a1479.05 1479.05 0 0 1 35.959-9.823l.452 2.478a188.358 188.358 0 0 1-28.165 8.52z" fill="#151215" data-color="3"></path>
    </g>
</svg>
