<svg preserveAspectRatio="xMidYMid meet" data-bbox="19.998 38.499 160.004 121.775" viewBox="19.998 38.499 160.004 121.775" height="100" width="100" xmlns="http://www.w3.org/2000/svg" data-type="color" role="presentation" aria-hidden="true" aria-label=""><defs><style>#comp-m8x93oj0 svg [data-color="2"] {fill: #FB413B;}</style></defs>
    <g>
        <path d="M128.882 143.044c-.062.067-.128.131-.192.197.143.26.139.608-.153.848-.765.63-1.581 1.19-2.436 1.68.68 3.121-.047 6.521 1.44 9.472 1.662 3.299 5.354 4.907 8.899 5.024 4.395.144 8.482-1.591 12.683-2.6 2.275-.547 4.96-1.087 7.176-.05.204.095.399.204.585.322l-2.043-5.941 6.223-2.422c-3.924-1.819-8.424-1.285-12.495-.253-2.281.579-4.515 1.324-6.795 1.905a30.71 30.71 0 0 1-3.641.719c-.907.117-2.148.343-2.939-.259-.744-.566-.599-1.63-.45-2.435.183-.987.454-1.943.538-2.948a13.586 13.586 0 0 0-.588-5.239c-1.739.458-3.483.897-5.232 1.315-.187.229-.381.45-.58.665z" fill="#FCC13E" data-color="1"></path>
        <path d="m177.203 100.932-.049-.361-.067-.482a770.9 770.9 0 0 0-.798-5.663c-.81-5.589-1.674-11.169-2.572-16.744a1752.55 1752.55 0 0 0-2.165-13.101c-.934-5.534-1.888-11.065-2.842-16.596l-.413-1.225a.685.685 0 0 0-.121.04l-6.703 2.918-.968-5.272c-.062-.336-.508-.351-.625-.117-2.627 1.269-5.255 2.538-7.88 3.812l-1.571-5.323-1.066-3.609c.021-.25-.257-.505-.503-.304-.611.497-1.224.992-1.836 1.488l-.572-1.465c.068-.255-.208-.549-.464-.379a.346.346 0 0 0-.211.166 184.824 184.824 0 0 1-4.25 3.348c-5.036 3.856-10.24 7.49-15.416 11.155a510.507 510.507 0 0 0-6.733 4.835 241.58 241.58 0 0 0-5.355 4.032c-.435.338-.868.677-1.3 1.019a144.88 144.88 0 0 0-6.094 5.084 108.954 108.954 0 0 0-6.494 6.239 93.04 93.04 0 0 0-2.254 2.445 711.396 711.396 0 0 0-15.576-3.192c-.465-.09-.93-.178-1.396-.267a699.302 699.302 0 0 0-12.352-2.246c-.302-.052-.604-.106-.905-.157-.254-.044-.509-.086-.763-.129a696.535 696.535 0 0 0-32.305-4.724c-.218-.123-.577.089-.475.405l1.925 5.991c-3.776-.174-7.553-.329-11.331-.461-.217-.008-.349.166-.365.335a.31.31 0 0 0 .01.207 77.504 77.504 0 0 0 3.024 6.889c-2.056.088-4.112.176-6.168.269l-.009.001c-.207-.036-.466.157-.396.427l.003.012c.82 2.824 1.76 5.609 2.817 8.352-.894.044-1.788.087-2.682.125a.572.572 0 0 0-.404.171.894.894 0 0 0-.52.662c-.054.323.049.673.204.997.061.133.134.262.209.383l13.628 25.897.018.034.136.258.409.777 11.896 22.605 1.398 2.656 7.769 14.763c.022.042.048.08.075.115.1.231.319.41.64.391a265.831 265.831 0 0 0 56.435-9.572l.322-.091a.622.622 0 0 0 .437.309c4.305.875 8.858.102 12.648-2.072.854-.49 1.67-1.051 2.436-1.68.292-.24.296-.588.153-.848.063-.066.129-.13.192-.197.199-.215.393-.436.578-.664 1.749-.418 3.493-.857 5.232-1.315a229.757 229.757 0 0 0 33.796-11.767 230.296 230.296 0 0 0 10.743-5.051.658.658 0 0 0 .365-.484.598.598 0 0 0 .264-.584c-.777-7.838-1.726-15.662-2.793-23.47zM24.097 88.007c-.111-.291-.22-.582-.329-.873.154.403.269.711.329.873zm124.751-48.253-1.842 1.496-.001-.003c.614-.498 1.23-.994 1.843-1.493zm-14.955 8.748-.018.014-.037.026.055-.04zM25.096 72.757l.322.012 1.042 3.28a76.222 76.222 0 0 1-1.364-3.292zm-.79 15.798-.16-.42 8.433-.087c-2.756.197-5.514.366-8.273.507z" fill="#FF3731" data-color="2"></path>
        <path d="M148.848 39.754c-.614.499-1.229.995-1.844 1.493l.001.003 1.843-1.496z" fill="#FF3731" data-color="2"></path>
        <path d="m83.986 74.671-.037-.007-.452-.087-.003.017.492.077z" fill="#FF3731" data-color="2"></path>
        <path fill="#F8F5F4" d="m105.961 74.679-.001-.005.001.005z" data-color="3"></path>
        <path d="M148.012 50.809c-5.504 2.692-10.992 5.426-16.434 8.247-7.951 4.122-15.803 8.432-23.462 13.078-.828.502-1.653 1.008-2.476 1.518a.649.649 0 0 1 .349.458.62.62 0 0 1 .361-.391l2.665-1.16 1.332-.58 9.609-4.184 24.11-10.497 16.795-7.313-.912-4.967a2621.12 2621.12 0 0 0-11.937 5.791z" fill="#F8F5F4" data-color="3"></path>
        <path d="M35.604 87.822a409.503 409.503 0 0 0 25.862-2.869 410.923 410.923 0 0 0 24.929-4.363l.028-.006c-.043-.367.328-.758.747-.733 1.191-1.432 3.607-.557 5.201-.601a13.154 13.154 0 0 0 4.647-.999.23.23 0 0 1-.014-.019 2333.954 2333.954 0 0 0-75.463 2.201 103.523 103.523 0 0 0 2.23 6.701c.153.404.342 2.079.403 2.241.016.043.801 1.138.817 1.181l7.591-2.507c1.006-.073 2.014-.148 3.022-.227z" fill="#F8F5F4" data-color="3"></path>
        <path d="m70.519 75.39-.759-.06c-5.561-.443-11.126-.842-16.693-1.194-9.21-.582-19.427-1.035-28.649-1.367l2.042 3.28a76.693 76.693 0 0 0 1.623 3.446c3.252-.138 6.503-.272 9.756-.397a2328.87 2328.87 0 0 1 56.752-1.481c-4.41-.461-8.823-.895-13.238-1.298-3.61-.329-7.221-.639-10.834-.929z" fill="#F8F5F4" data-color="3"></path>
        <path d="M98.379 81.803c3.41-1.137 6.017-4.061 6.336-7.704a.747.747 0 0 1 .031-.151.927.927 0 0 1-.004-.311c-.245-.357-.906-.116-1.167.107-.314.267-.54.638-.792.96a13.262 13.262 0 0 1-1.516 1.627 13.837 13.837 0 0 1-4.007 2.527 13.62 13.62 0 0 1-4.622 1.033 14.157 14.157 0 0 1-2.264-.097c-.876-.104-1.906-.247-2.58.359 3.119 1.985 7.009 2.842 10.585 1.65z" fill="#F8F5F4" data-color="3"></path>
        <path d="m83.495 74.593.003-.017-1.597-.309-1.395-.268a701.196 701.196 0 0 0-11.499-2.09c-.307-.053-.613-.108-.92-.16l-.776-.131a704.253 704.253 0 0 0-32.424-4.764l.017.052 1.826 5.681a1014.159 1014.159 0 0 1 32.391 2.038l.128.01 1.602.129c8.314.671 16.62 1.446 24.916 2.321a696.18 696.18 0 0 0-11.779-2.415l-.493-.077z" fill="#F8F5F4" data-color="3"></path>
        <path d="M102.398 74.135c.463-.605.994-1.342 1.839-1.337.305.002.59.095.81.264.649-.485 1.296-.972 1.945-1.458a1300.55 1300.55 0 0 0 7.661-5.778 1313.034 1313.034 0 0 0 25.54-19.931 1280.68 1280.68 0 0 0 6.301-5.07l-.549-1.407a199.279 199.279 0 0 1-5.69 4.431l-2.631 1.78-3.731 2.872-.018.014-.037.026c-4.678 3.346-9.408 6.621-14.046 10.021a250.85 250.85 0 0 0-4.316 3.228 175.662 175.662 0 0 0-2.761 2.159 140.163 140.163 0 0 0-6.395 5.398 121 121 0 0 0-1.397 1.28c-2.467 2.294-4.833 4.696-7.053 7.239l.04-.02a12.918 12.918 0 0 0 4.488-3.711z" fill="#F8F5F4" data-color="3"></path>
        <path d="M139.043 47.652a1322.93 1322.93 0 0 1-29.582 22.917 344.967 344.967 0 0 1 7.327-4.266 456.348 456.348 0 0 1 15.513-8.352c6.324-3.262 12.708-6.409 19.108-9.52l-2.561-8.676-1.842 1.496-.001-.003c-2.419 1.96-4.842 3.915-7.274 5.858-.23.181-.459.363-.688.546z" fill="#F8F5F4" data-color="3"></path>
        <path d="M97.451 106.958A812.96 812.96 0 0 0 86.394 80.59a410.923 410.923 0 0 1-24.929 4.363 409.421 409.421 0 0 1-40.527 3.761.572.572 0 0 0-.404.171.897.897 0 0 0-.52.662c-.055.323.049.673.204.997.061.133.134.262.209.383l13.628 25.897.018.034.136.258.409.777 11.896 22.605 1.398 2.656 7.769 14.763c.022.042.048.08.075.115.101.231.319.41.64.391a265.831 265.831 0 0 0 56.435-9.572 810.49 810.49 0 0 0-15.38-41.893z" fill="#FF3731" data-color="2"></path>
        <path d="M126.477 141.163c-.397-1.075-.793-2.151-1.187-3.228l-.25-.687c-.313-.858-.626-1.716-.937-2.576a973.842 973.842 0 0 1-12.157-35.815c-.188-.59-.373-1.181-.56-1.772l-.425-1.345c-.25-.796-.498-1.593-.746-2.389l-.223-.715c-.287-.924-.572-1.848-.856-2.773l-.099-.322c-.31-1.01-.617-2.02-.924-3.03l-.019-.062c-.943-3.113-1.871-6.231-2.784-9.353-1.15 2.777-3.566 4.958-6.463 5.923-3.504 1.168-7.202.613-10.417-1.018l.001.003a815.678 815.678 0 0 1 2.768 6.407c.319.747.638 1.493.954 2.241a812.796 812.796 0 0 1 14.055 35.502l.649 1.77c.161.441.324.881.484 1.322.292.801.581 1.602.87 2.404l.245.679a928.874 928.874 0 0 1 2.176 6.128l.009.025c1.086 3.097 2.152 6.2 3.201 9.31 4.86.972 9.971-.274 13.848-3.356a911.84 911.84 0 0 1-1.215-3.269c.003-.002.002-.003.002-.004z" fill="#FF3731" data-color="2"></path>
        <path d="M176.289 94.426c-.81-5.589-1.674-11.169-2.572-16.744-.704-4.37-1.428-8.737-2.164-13.101-.934-5.534-1.888-11.065-2.842-16.596l-.413-1.225a.685.685 0 0 0-.121.04l-6.703 2.918-.611.266-16.795 7.313-24.11 10.497-9.609 4.184-1.332.58-2.665 1.16a.62.62 0 0 0-.361.391.731.731 0 0 1 .01.195 9.092 9.092 0 0 1-.04.37l.001.005c.67 2.311 1.348 4.619 2.034 6.925l.138.46a945.127 945.127 0 0 0 1.957 6.479 971.998 971.998 0 0 0 18.929 55.727c.199-.215.393-.436.578-.665 1.749-.418 3.493-.857 5.232-1.315a229.757 229.757 0 0 0 33.796-11.767 230.296 230.296 0 0 0 10.743-5.051.654.654 0 0 0 .364-.484.598.598 0 0 0 .264-.584c-.777-7.842-1.726-15.666-2.793-23.474l-.049-.361-.067-.482a855.684 855.684 0 0 0-.799-5.661z" fill="#FF3731" data-color="2"></path>
        <path d="M128.674 145.315c.292-.24.296-.588.153-.848.063-.066.129-.13.192-.197a975.1 975.1 0 0 1-9.387-26.251 972.908 972.908 0 0 1-11.499-35.955l-.138-.46c-.686-2.306-1.364-4.614-2.034-6.925l-.001-.005c.016-.123.029-.246.04-.37a.647.647 0 0 0-.359-.653c.823-.51 1.648-1.016 2.476-1.518 7.659-4.647 15.511-8.956 23.462-13.078a785.076 785.076 0 0 1 16.434-8.247c3.973-1.944 7.956-3.867 11.939-5.79l.912 4.967.611-.266-.968-5.272c-.062-.336-.508-.351-.625-.117-2.627 1.269-5.255 2.538-7.88 3.812l-1.571-5.323-1.066-3.61c.02-.25-.257-.505-.504-.304-.611.497-1.224.992-1.836 1.488l-.572-1.465c.068-.255-.207-.549-.464-.379a.346.346 0 0 0-.211.166 184.824 184.824 0 0 1-4.25 3.348c-5.036 3.856-10.24 7.49-15.416 11.155a503.955 503.955 0 0 0-6.733 4.835 239.26 239.26 0 0 0-5.355 4.032c-.435.338-.868.677-1.3 1.019a145.551 145.551 0 0 0-6.095 5.084 108.954 108.954 0 0 0-6.494 6.239 93.04 93.04 0 0 0-2.254 2.445 705.561 705.561 0 0 0-15.576-3.192l-1.395-.267a690.243 690.243 0 0 0-12.352-2.245c-.302-.052-.603-.106-.905-.157-.254-.044-.509-.086-.763-.129a696.535 696.535 0 0 0-32.305-4.724c-.218-.123-.577.089-.475.405l1.925 5.991c-3.776-.174-7.553-.329-11.331-.461-.217-.008-.349.166-.365.335a.31.31 0 0 0 .01.207 77.504 77.504 0 0 0 3.024 6.889c-2.056.088-4.112.176-6.168.269l-.009.001c-.207-.036-.466.157-.396.427l.003.012c.82 2.824 1.76 5.609 2.817 8.352l.686-.034-.16-.42-.049-.128c-.111-.291-.22-.582-.329-.873a103.727 103.727 0 0 1-2.23-6.701 2342.867 2342.867 0 0 1 58.938-1.928c5.508-.11 11.017-.201 16.525-.273l.014.019a13.159 13.159 0 0 1-4.647.999c-1.594.044-4.01-.83-5.201.601-.419-.025-.79.365-.747.733l-.028.006a812.96 812.96 0 0 1 11.057 26.368 812.99 812.99 0 0 1 15.381 41.893l.322-.091a.622.622 0 0 0 .437.309c4.305.875 8.858.102 12.649-2.072a17.308 17.308 0 0 0 2.436-1.678zm-61.17-67.164a2271.813 2271.813 0 0 0-39.422 1.345 76.629 76.629 0 0 1-1.623-3.446 76.751 76.751 0 0 1-1.364-3.292l.322.012a1011.892 1011.892 0 0 1 45.101 2.621 1011.464 1011.464 0 0 1 24.071 2.228c-9.028.125-18.057.301-27.085.532zm3.346-3.386-1.602-.129-.128-.01a1013.91 1013.91 0 0 0-32.391-2.038l-1.826-5.681-.017-.052a702.886 702.886 0 0 1 32.424 4.764l.776.131.92.16A699.27 699.27 0 0 1 80.505 74l1.395.268 1.597.309.452.087.037.007a704.1 704.1 0 0 1 11.779 2.415 1023.716 1023.716 0 0 0-24.915-2.321zm76.155-33.518c.614-.498 1.23-.994 1.844-1.493l2.561 8.676c-6.4 3.111-12.784 6.259-19.108 9.52a458.952 458.952 0 0 0-15.513 8.352 340.728 340.728 0 0 0-7.327 4.266 1319.973 1319.973 0 0 0 29.582-22.917l.687-.547c2.432-1.942 4.855-3.897 7.274-5.857zm-42.082 29.38c.463-.43.927-.858 1.397-1.28a139.523 139.523 0 0 1 6.395-5.398 185.568 185.568 0 0 1 2.761-2.159 250.85 250.85 0 0 1 4.316-3.228c4.639-3.4 9.368-6.675 14.046-10.021l.055-.039 3.731-2.872 2.631-1.78a199.279 199.279 0 0 0 5.69-4.431l.549 1.407a1329.643 1329.643 0 0 1-6.301 5.07 1316.072 1316.072 0 0 1-25.54 19.931c-2.546 1.936-5.101 3.86-7.661 5.778-.648.486-1.295.973-1.945 1.458a1.343 1.343 0 0 0-.81-.264c-.845-.005-1.376.732-1.839 1.337a12.918 12.918 0 0 1-4.488 3.711l-.04.02a96.786 96.786 0 0 1 7.053-7.24zm-14.551 9.167c.752.089 1.507.129 2.264.097a13.667 13.667 0 0 0 4.622-1.033 13.81 13.81 0 0 0 4.007-2.527c.549-.5 1.059-1.042 1.516-1.627.252-.322.478-.693.792-.96.262-.222.922-.464 1.167-.107a.927.927 0 0 0 .004.311.672.672 0 0 0-.031.151c-.319 3.644-2.925 6.568-6.336 7.704-3.575 1.192-7.466.335-10.586-1.65.676-.607 1.705-.463 2.581-.359zm23.473 67.996a804.435 804.435 0 0 0-3.201-9.31l-.009-.025a786.213 786.213 0 0 0-1.076-3.051l-.101-.282c-.331-.932-.664-1.864-.999-2.795l-.245-.679c-.289-.802-.578-1.603-.87-2.404l-.484-1.322c-.216-.59-.431-1.18-.649-1.77a810.958 810.958 0 0 0-15.009-37.743l-.28-.657a702.289 702.289 0 0 0-1.23-2.857c-.418-.965-.837-1.929-1.258-2.893l-.001-.003c3.215 1.632 6.914 2.186 10.417 1.018 2.896-.965 5.313-3.146 6.463-5.923.913 3.122 1.84 6.24 2.784 9.353l.019.062c.306 1.011.614 2.021.924 3.03l.099.322c.284.925.569 1.849.856 2.773l.223.715a945.989 945.989 0 0 0 2.733 8.642 971.044 971.044 0 0 0 11.155 32.679c.311.859.624 1.717.937 2.576l.25.687a961.856 961.856 0 0 0 2.403 6.499c-3.88 3.084-8.991 4.33-13.851 3.358z" fill="#151215" data-color="4"></path>
    </g>
</svg>